<svg width="166" height="20" viewBox="0 0 166 20" fill="none" xmlns="http://www.w3.org/2000/svg">
<path d="M17.0847 0.596321L14.8886 2.79237L13.5076 1.41135C13.2462 1.13556 12.106 0.0488537 10.3916 0.00151628C9.49218 -0.0231815 8.12145 0.242318 6.71368 1.65009L4.72139 3.64238L7.07797 5.99896L9.07026 4.00667C9.37898 3.69795 9.84001 3.32954 10.2784 3.33366C10.6633 3.33572 10.9946 3.61768 11.0708 3.68972L12.53 5.14894L7.008 10.671L2.35452 6.01748L0 8.37407L4.65347 13.0275L2.35864 15.3224L4.71522 17.679L7.01005 15.3841L10.2146 18.5887C10.476 18.8624 11.6162 19.9511 13.3306 19.9985C14.23 20.0232 15.6008 19.7577 17.0085 18.3499L18.9905 16.3679L16.634 14.0113L14.652 15.9933C14.3432 16.3021 13.8822 16.6705 13.4438 16.6663C13.059 16.6643 12.7276 16.3823 12.6514 16.3103L9.36869 13.0275L14.8907 7.50553L21.3677 13.9825L23.7243 11.6259L17.2473 5.14894L19.4433 2.9529L17.0847 0.596321Z" fill="url(#paint0_linear_1456_4583)"/>
<path d="M95.957 5.89398V6.88806H88.4242V5.89398H95.957ZM94.1788 0.462524C94.609 0.462524 94.9835 0.516035 95.3005 0.625117C95.6154 0.73214 95.8665 0.886502 96.0517 1.0882L95.7286 2.01231C95.529 1.82708 95.3128 1.69741 95.0823 1.6192C94.8518 1.54305 94.5822 1.50395 94.2735 1.50395C93.5181 1.50395 92.9336 1.72005 92.5179 2.15021C92.1021 2.58242 91.8943 3.22044 91.8943 4.0684V5.89398V6.30972V17.4484H90.7396V3.95314C90.7396 3.43037 90.8117 2.95083 90.9599 2.52067C91.106 2.09052 91.3262 1.72417 91.6185 1.42368C91.9107 1.12319 92.273 0.888561 92.7052 0.719793C93.1312 0.548967 93.6231 0.462524 94.1788 0.462524ZM98.8241 3.65265C98.5318 3.65265 98.2972 3.56415 98.1202 3.38715C97.9432 3.21015 97.8547 2.97552 97.8547 2.68327C97.8547 2.39101 97.9432 2.15638 98.1202 1.97938C98.2972 1.80238 98.5318 1.71388 98.8241 1.71388C99.1163 1.71388 99.3509 1.80238 99.5279 1.97938C99.7049 2.15638 99.7934 2.39101 99.7934 2.68327C99.7934 2.97552 99.7049 3.21015 99.5279 3.38715C99.3509 3.56415 99.1163 3.65265 98.8241 3.65265ZM99.4003 5.89398V17.4484H98.2457V5.89398H99.4003Z" fill="white"/>
<path d="M103.515 17.4484V5.89395H104.554L104.647 8.78153L104.461 8.61894C104.677 7.98708 105.001 7.44785 105.433 7.00123C105.863 6.55461 106.38 6.21914 106.98 5.99686C107.581 5.77458 108.228 5.66138 108.921 5.66138C109.784 5.66138 110.547 5.82397 111.21 6.1471C111.873 6.47023 112.391 6.94772 112.77 7.57957C113.147 8.21142 113.336 9.00381 113.336 9.96085V17.4484H112.181V10.3313C112.181 9.06761 111.869 8.1435 111.245 7.55899C110.621 6.97448 109.808 6.68016 108.808 6.68016C108.084 6.68016 107.411 6.84481 106.787 7.17617C106.163 7.50754 105.655 7.98914 105.262 8.621C104.869 9.25285 104.673 10.0226 104.673 10.9323V17.4484H103.515Z" fill="white"/>
<path d="M124.403 9.84561C124.403 8.84329 124.133 8.06531 123.594 7.51167C123.055 6.95597 122.285 6.68018 121.283 6.68018C120.404 6.68018 119.648 6.86953 119.019 7.24617C118.387 7.62281 117.917 8.25055 117.609 9.12938L116.662 8.5284C117.002 7.6187 117.568 6.91481 118.36 6.41468C119.152 5.91455 120.136 5.66345 121.307 5.66345C122.155 5.66345 122.898 5.8137 123.536 6.11419C124.176 6.41468 124.672 6.85718 125.026 7.44375C125.38 8.02827 125.557 8.76097 125.557 9.6398V15.417C125.557 16.2341 125.928 16.6416 126.667 16.6416C126.99 16.6416 127.268 16.5881 127.498 16.479L127.428 17.4031C127.167 17.541 126.827 17.611 126.411 17.611C126.057 17.611 125.726 17.541 125.417 17.4031C125.109 17.2652 124.86 17.0327 124.666 16.7095C124.473 16.3864 124.378 15.946 124.378 15.3923V14.7687L124.701 14.7461C124.563 15.4088 124.259 15.9583 123.789 16.3988C123.32 16.8371 122.777 17.1623 122.159 17.3702C121.544 17.5781 120.927 17.683 120.311 17.683C119.587 17.683 118.94 17.5678 118.37 17.3373C117.8 17.1068 117.354 16.7713 117.03 16.3329C116.707 15.8945 116.545 15.3512 116.545 14.7028C116.545 13.8405 116.833 13.1428 117.411 12.6118C117.99 12.0808 118.8 11.7144 119.848 11.5148L124.631 10.568V11.5374L120.426 12.3689C119.517 12.5541 118.84 12.8238 118.393 13.1778C117.946 13.5318 117.722 14.0092 117.722 14.6102C117.722 15.2565 117.961 15.7628 118.438 16.123C118.916 16.4852 119.593 16.6663 120.472 16.6663C120.918 16.6663 121.373 16.6046 121.834 16.4811C122.297 16.3576 122.723 16.1621 123.116 15.8925C123.509 15.6228 123.82 15.2832 124.053 14.8757C124.283 14.4682 124.399 13.9701 124.399 13.3856V9.84561H124.403Z" fill="white"/>
<path d="M129.879 17.4484V5.89395H130.919L131.011 8.78153L130.826 8.61894C131.042 7.98708 131.365 7.44785 131.798 7.00123C132.228 6.55461 132.744 6.21914 133.345 5.99686C133.946 5.77458 134.593 5.66138 135.286 5.66138C136.149 5.66138 136.912 5.82397 137.575 6.1471C138.238 6.47023 138.756 6.94772 139.135 7.57957C139.512 8.21142 139.701 9.00381 139.701 9.96085V17.4484H138.546V10.3313C138.546 9.06761 138.233 8.1435 137.61 7.55899C136.986 6.97448 136.173 6.68016 135.173 6.68016C134.449 6.68016 133.776 6.84481 133.152 7.17617C132.528 7.50754 132.02 7.98914 131.627 8.621C131.234 9.25285 131.038 10.0226 131.038 10.9323V17.4484H129.879Z" fill="white"/>
<path d="M148.366 5.66345C149.152 5.66345 149.852 5.78694 150.469 6.03392C151.085 6.2809 151.609 6.6349 152.04 7.09798C152.47 7.56107 152.803 8.12294 153.034 8.78567L151.947 9.29403C151.7 8.46254 151.272 7.81834 150.665 7.36348C150.055 6.90863 149.282 6.68224 148.343 6.68224C147.495 6.68224 146.748 6.87776 146.102 7.27087C145.456 7.66398 144.953 8.23408 144.599 8.98119C144.245 9.7283 144.068 10.6257 144.068 11.6732C144.068 12.7064 144.245 13.5997 144.599 14.353C144.953 15.1083 145.447 15.6825 146.079 16.0736C146.711 16.4667 147.458 16.6622 148.32 16.6622C148.967 16.6622 149.557 16.5552 150.088 16.3391C150.619 16.123 151.06 15.8081 151.406 15.3923C151.751 14.9766 151.98 14.4826 152.087 13.9125L153.151 14.283C152.951 14.991 152.622 15.6002 152.169 16.1086C151.714 16.6169 151.165 17.0059 150.517 17.2755C149.868 17.5451 149.146 17.6789 148.345 17.6789C147.298 17.6789 146.361 17.4402 145.538 16.9627C144.713 16.4852 144.07 15.7957 143.607 14.8942C143.144 13.9928 142.914 12.9184 142.914 11.6712C142.914 10.4239 143.148 9.3496 143.618 8.44813C144.087 7.54666 144.735 6.85718 145.558 6.37969C146.384 5.9022 147.318 5.66345 148.366 5.66345Z" fill="white"/>
<path d="M160.962 17.6789C159.898 17.6789 158.951 17.4402 158.119 16.9627C157.288 16.4852 156.635 15.7957 156.166 14.8942C155.697 13.9928 155.462 12.9184 155.462 11.6712C155.462 10.4239 155.697 9.3496 156.166 8.44813C156.635 7.54666 157.275 6.85718 158.084 6.37969C158.893 5.9022 159.805 5.66345 160.822 5.66345C161.869 5.66345 162.763 5.89397 163.501 6.35705C164.24 6.82013 164.81 7.46227 165.212 8.28759C165.613 9.11085 165.813 10.0638 165.813 11.1422C165.813 11.2801 165.809 11.416 165.8 11.5456C165.792 11.6774 165.782 11.7967 165.765 11.9038H156.176V10.8644H165.257L164.679 11.027C164.662 9.70154 164.312 8.64777 163.627 7.86156C162.942 7.07534 161.997 6.68224 160.797 6.68224C159.965 6.68224 159.233 6.87776 158.601 7.27087C157.969 7.66398 157.477 8.23408 157.121 8.98119C156.767 9.7283 156.59 10.6257 156.59 11.6732C156.59 12.7064 156.771 13.5997 157.133 14.353C157.496 15.1083 158.004 15.6825 158.659 16.0736C159.313 16.4667 160.073 16.6622 160.935 16.6622C161.828 16.6622 162.594 16.4687 163.234 16.0839C163.874 15.699 164.37 15.168 164.724 14.4888L165.648 15.0198C165.37 15.5734 165.002 16.0489 164.539 16.442C164.076 16.8351 163.545 17.1397 162.944 17.3537C162.347 17.5719 161.684 17.6789 160.962 17.6789Z" fill="white"/>
<path d="M52.1576 1.45667C53.3267 1.45667 54.4813 1.45667 55.6585 1.45667C55.6585 3.29253 55.6585 5.12223 55.6585 6.99103C55.7717 6.87989 55.8499 6.7955 55.9364 6.71935C56.525 6.18629 57.2351 5.92285 58.0048 5.7973C58.9001 5.65117 59.7913 5.64911 60.6639 5.92079C61.9071 6.30772 62.7097 7.16597 63.2037 8.34117C63.5865 9.25087 63.7368 10.21 63.7738 11.1876C63.817 12.3093 63.7203 13.4145 63.3416 14.4806C62.8682 15.8102 62.047 16.829 60.6886 17.3394C59.8098 17.6687 58.9001 17.7202 57.9739 17.6152C57.2968 17.539 56.6403 17.3991 56.0372 17.0636C55.6482 16.8496 55.3086 16.5758 55.0205 16.2383C54.7447 15.9152 54.4669 15.9481 54.2652 16.3186C53.8659 17.0574 53.2382 17.43 52.4025 17.4526C52.3243 17.4547 52.2461 17.4526 52.1576 17.4526C52.1576 12.1199 52.1576 6.78933 52.1576 1.45667ZM60.1947 11.7186C60.135 11.1773 60.1082 10.6751 60.0156 10.1873C59.8839 9.4855 59.5176 8.95244 58.7972 8.7281C58.4041 8.60462 57.9986 8.59226 57.5932 8.61902C56.5826 8.689 55.9858 9.15414 55.7841 10.1071C55.5618 11.1567 55.568 12.2208 55.8005 13.2704C55.9714 14.0464 56.4571 14.5444 57.2557 14.6762C57.5973 14.7317 57.9534 14.7461 58.2971 14.7194C59.213 14.6494 59.7789 14.1801 59.9827 13.2828C60.1 12.758 60.1288 12.2167 60.1947 11.7186Z" fill="white"/>
<path d="M72.6136 10.2984C72.6177 9.85179 72.5745 9.42986 72.3604 9.04499C72.1649 8.68893 71.852 8.479 71.4651 8.37609C70.9568 8.24025 70.4381 8.22791 69.9236 8.32875C69.1435 8.48312 68.771 8.9215 68.7195 9.71388C68.7175 9.75916 68.7154 9.80239 68.7113 9.86207C67.567 9.86207 66.4268 9.86207 65.2495 9.86207C65.2783 9.52865 65.2907 9.19729 65.3359 8.87211C65.4594 7.98299 65.8052 7.20912 66.5441 6.65136C67.0154 6.2953 67.5526 6.08332 68.1206 5.94954C69.1826 5.69638 70.2632 5.6758 71.3478 5.73343C72.0414 5.77048 72.7247 5.87133 73.3915 6.07714C74.9002 6.54434 75.7687 7.56724 76.0157 9.11085C76.098 9.61921 76.1474 10.1399 76.1495 10.6545C76.1639 12.8731 76.1556 15.0918 76.1556 17.3085C76.1556 17.3517 76.1556 17.397 76.1556 17.4381C75.3859 17.5822 74.5009 17.1438 74.0934 16.4255C73.8093 15.9254 73.6076 15.9048 73.2228 16.3329C72.6136 17.01 71.8418 17.3928 70.9588 17.5451C69.5901 17.7798 68.24 17.7119 66.9392 17.1891C66.011 16.8166 65.2907 16.2012 64.9902 15.2153C64.6897 14.2253 64.7164 13.2457 65.2968 12.3442C65.6591 11.7823 66.2107 11.4551 66.8178 11.2143C67.5505 10.922 68.3182 10.7697 69.0962 10.6792C70.2611 10.5433 71.4281 10.426 72.6136 10.2984ZM72.6177 12.6241C72.5312 12.6303 72.4715 12.6323 72.4098 12.6385C71.6606 12.727 70.9115 12.8114 70.1623 12.9061C69.7548 12.9575 69.3493 13.0275 68.983 13.2333C68.7525 13.363 68.5858 13.54 68.5323 13.8117C68.4335 14.3077 68.7154 14.7811 69.2444 14.993C69.6601 15.1577 70.0985 15.1886 70.541 15.1659C71.0432 15.1392 71.5063 14.991 71.8767 14.6349C72.4386 14.0916 72.5868 13.3939 72.6177 12.6241Z" fill="white"/>
<path d="M28.7421 5.94543C29.0117 5.94543 29.2751 5.93719 29.5365 5.94748C30.1498 5.97218 30.5615 5.50498 30.5368 4.94928C30.51 4.35859 30.5306 3.7679 30.5306 3.17722C30.5306 3.11547 30.5306 3.05578 30.5306 2.98169C31.7079 2.98169 32.8707 2.98169 34.0541 2.98169C34.0541 3.95725 34.0541 4.9287 34.0541 5.91455C35.0421 5.91455 36.0094 5.91455 36.987 5.91455C36.987 6.8613 36.987 7.79364 36.987 8.74451C36.0423 8.74451 35.1038 8.74451 34.1447 8.74451C34.1447 8.82271 34.1447 8.8824 34.1447 8.94209C34.1447 10.4404 34.1447 11.9367 34.1447 13.435C34.1447 14.1945 34.472 14.5732 35.2252 14.6967C35.7521 14.7831 36.2811 14.7584 36.81 14.7152C36.8656 14.7111 36.9191 14.7049 36.987 14.7008C36.9911 14.7666 36.9973 14.8202 36.9973 14.8757C36.9973 15.7093 36.9932 16.5428 37.0014 17.3743C37.0035 17.5225 36.9603 17.5678 36.8121 17.5678C35.888 17.5637 34.9638 17.5987 34.0439 17.5534C33.5273 17.5266 33.0065 17.4093 32.5085 17.2611C31.465 16.9524 30.8537 16.2238 30.6685 15.1618C30.5862 14.6884 30.5429 14.2007 30.5388 13.7191C30.5224 12.1363 30.5327 10.5557 30.5327 8.97296C30.5327 8.90504 30.5327 8.83918 30.5327 8.7548C29.9358 8.7548 29.3451 8.7548 28.7421 8.7548C28.7421 7.81834 28.7421 6.90041 28.7421 5.94543Z" fill="white"/>
<path d="M81.6982 17.4546C80.5189 17.4546 79.354 17.4546 78.1767 17.4546C78.1767 12.124 78.1767 6.80162 78.1767 1.46484C79.3458 1.46484 80.5148 1.46484 81.6982 1.46484C81.6982 6.78722 81.6982 12.1158 81.6982 17.4546Z" fill="white"/>
<path d="M45.2443 8.77136C44.8244 8.78988 44.421 8.77136 44.0279 8.83105C42.9947 8.99158 42.4143 9.59461 42.2662 10.634C42.2209 10.9448 42.1982 11.2617 42.1962 11.5746C42.19 13.4598 42.1921 15.3451 42.1921 17.2324C42.1921 17.3003 42.1921 17.3682 42.1921 17.4485C41.0127 17.4485 39.8396 17.4485 38.65 17.4485C38.65 17.3827 38.65 17.323 38.65 17.2612C38.65 13.5401 38.65 9.82101 38.65 6.09988C38.65 5.88583 38.65 5.88377 38.8743 5.88583C39.7511 5.88789 40.3912 6.281 40.7987 7.0528C40.9634 7.36358 41.2597 7.40063 41.4944 7.13925C42.3876 6.14928 43.4949 5.65326 44.8347 5.70266C44.9191 5.70472 45.0056 5.70266 45.0879 5.69031C45.199 5.67384 45.2505 5.71913 45.2505 5.82409C45.2505 6.80377 45.2484 7.78345 45.2464 8.76107C45.2464 8.77136 45.2402 8.77959 45.2443 8.77136Z" fill="white"/>
<path d="M49.9698 5.92078C49.9698 9.76951 49.9698 13.6038 49.9698 17.4485C48.7905 17.4485 47.6153 17.4485 46.4257 17.4485C46.4257 13.61 46.4257 9.76951 46.4257 5.92078C47.605 5.92078 48.7802 5.92078 49.9698 5.92078Z" fill="white"/>
<path d="M48.1483 4.6468C47.9137 4.6221 47.642 4.61593 47.3786 4.56447C46.7159 4.43687 46.4071 4.11374 46.2837 3.45308C46.2034 3.02292 46.2116 2.59071 46.2981 2.16262C46.4133 1.59457 46.7632 1.25497 47.3333 1.14795C47.8643 1.0471 48.3994 1.0471 48.9304 1.12531C49.6014 1.2241 49.9286 1.5534 50.0521 2.22436C50.1303 2.64834 50.1303 3.07438 50.048 3.49836C49.9204 4.1549 49.5417 4.50891 48.8749 4.59123C48.6464 4.61799 48.4138 4.62622 48.1483 4.6468Z" fill="white"/>
<defs>
<linearGradient id="paint0_linear_1456_4583" x1="5.99285" y1="1.91952" x2="19.0229" y2="21.0881" gradientUnits="userSpaceOnUse">
<stop offset="0.1824" stop-color="#FFE500"/>
<stop offset="0.9847" stop-color="#2FDFDA"/>
</linearGradient>
</defs>
</svg>
